<mxfile host="app.diagrams.net" modified="2024-06-09T17:15:24.788Z" agent="Mozilla/5.0 (Windows NT 10.0; Win64; x64) AppleWebKit/537.36 (KHTML, like Gecko) Chrome/125.0.0.0 Safari/537.36" etag="NsPZMiUAc3e__Ezb6E8W" version="24.4.4" type="device">
  <diagram id="C5RBs43oDa-KdzZeNtuy" name="Page-1">
    <mxGraphModel dx="794" dy="1581" grid="1" gridSize="10" guides="1" tooltips="1" connect="1" arrows="1" fold="1" page="1" pageScale="1" pageWidth="827" pageHeight="1169" math="0" shadow="0">
      <root>
        <mxCell id="WIyWlLk6GJQsqaUBKTNV-0" />
        <mxCell id="WIyWlLk6GJQsqaUBKTNV-1" parent="WIyWlLk6GJQsqaUBKTNV-0" />
        <mxCell id="TcSMqWzgI2ib8zmz97Rw-6" style="edgeStyle=orthogonalEdgeStyle;rounded=0;orthogonalLoop=1;jettySize=auto;html=1;exitX=0.5;exitY=1;exitDx=0;exitDy=0;exitPerimeter=0;entryX=0.5;entryY=0;entryDx=0;entryDy=0;" edge="1" parent="WIyWlLk6GJQsqaUBKTNV-1" source="TcSMqWzgI2ib8zmz97Rw-4" target="TcSMqWzgI2ib8zmz97Rw-5">
          <mxGeometry relative="1" as="geometry" />
        </mxCell>
        <mxCell id="TcSMqWzgI2ib8zmz97Rw-4" value="start" style="strokeWidth=2;html=1;shape=mxgraph.flowchart.terminator;whiteSpace=wrap;" vertex="1" parent="WIyWlLk6GJQsqaUBKTNV-1">
          <mxGeometry x="270" y="-870" width="100" height="60" as="geometry" />
        </mxCell>
        <mxCell id="TcSMqWzgI2ib8zmz97Rw-19" style="edgeStyle=orthogonalEdgeStyle;rounded=0;orthogonalLoop=1;jettySize=auto;html=1;exitX=0.5;exitY=1;exitDx=0;exitDy=0;" edge="1" parent="WIyWlLk6GJQsqaUBKTNV-1" source="TcSMqWzgI2ib8zmz97Rw-5" target="TcSMqWzgI2ib8zmz97Rw-18">
          <mxGeometry relative="1" as="geometry" />
        </mxCell>
        <mxCell id="TcSMqWzgI2ib8zmz97Rw-5" value="print introduction" style="rounded=0;whiteSpace=wrap;html=1;" vertex="1" parent="WIyWlLk6GJQsqaUBKTNV-1">
          <mxGeometry x="260" y="-770" width="120" height="60" as="geometry" />
        </mxCell>
        <mxCell id="TcSMqWzgI2ib8zmz97Rw-10" style="edgeStyle=orthogonalEdgeStyle;rounded=0;orthogonalLoop=1;jettySize=auto;html=1;exitX=0;exitY=0.5;exitDx=0;exitDy=0;" edge="1" parent="WIyWlLk6GJQsqaUBKTNV-1" source="TcSMqWzgI2ib8zmz97Rw-7" target="TcSMqWzgI2ib8zmz97Rw-9">
          <mxGeometry relative="1" as="geometry" />
        </mxCell>
        <mxCell id="TcSMqWzgI2ib8zmz97Rw-11" value="Easy" style="edgeLabel;html=1;align=center;verticalAlign=middle;resizable=0;points=[];" vertex="1" connectable="0" parent="TcSMqWzgI2ib8zmz97Rw-10">
          <mxGeometry x="-0.0756" y="-3" relative="1" as="geometry">
            <mxPoint as="offset" />
          </mxGeometry>
        </mxCell>
        <mxCell id="TcSMqWzgI2ib8zmz97Rw-7" value="Easy or Hard" style="shape=parallelogram;perimeter=parallelogramPerimeter;whiteSpace=wrap;html=1;fixedSize=1;" vertex="1" parent="WIyWlLk6GJQsqaUBKTNV-1">
          <mxGeometry x="250" y="-530" width="120" height="60" as="geometry" />
        </mxCell>
        <mxCell id="TcSMqWzgI2ib8zmz97Rw-9" value="Give 5 guesses" style="rounded=0;whiteSpace=wrap;html=1;" vertex="1" parent="WIyWlLk6GJQsqaUBKTNV-1">
          <mxGeometry x="110" y="-440" width="120" height="60" as="geometry" />
        </mxCell>
        <mxCell id="TcSMqWzgI2ib8zmz97Rw-17" style="edgeStyle=orthogonalEdgeStyle;rounded=0;orthogonalLoop=1;jettySize=auto;html=1;exitX=0.5;exitY=1;exitDx=0;exitDy=0;entryX=1;entryY=0.75;entryDx=0;entryDy=0;" edge="1" parent="WIyWlLk6GJQsqaUBKTNV-1" source="TcSMqWzgI2ib8zmz97Rw-12" target="TcSMqWzgI2ib8zmz97Rw-15">
          <mxGeometry relative="1" as="geometry">
            <Array as="points">
              <mxPoint x="460" y="-320" />
              <mxPoint x="360" y="-320" />
              <mxPoint x="360" y="-318" />
            </Array>
          </mxGeometry>
        </mxCell>
        <mxCell id="TcSMqWzgI2ib8zmz97Rw-12" value="Give 10 guesses" style="rounded=0;whiteSpace=wrap;html=1;" vertex="1" parent="WIyWlLk6GJQsqaUBKTNV-1">
          <mxGeometry x="400" y="-440" width="120" height="60" as="geometry" />
        </mxCell>
        <mxCell id="TcSMqWzgI2ib8zmz97Rw-13" style="edgeStyle=orthogonalEdgeStyle;rounded=0;orthogonalLoop=1;jettySize=auto;html=1;exitX=1;exitY=0.5;exitDx=0;exitDy=0;entryX=0.467;entryY=0.117;entryDx=0;entryDy=0;entryPerimeter=0;" edge="1" parent="WIyWlLk6GJQsqaUBKTNV-1" source="TcSMqWzgI2ib8zmz97Rw-7" target="TcSMqWzgI2ib8zmz97Rw-12">
          <mxGeometry relative="1" as="geometry" />
        </mxCell>
        <mxCell id="TcSMqWzgI2ib8zmz97Rw-14" value="Hard" style="edgeLabel;html=1;align=center;verticalAlign=middle;resizable=0;points=[];" vertex="1" connectable="0" parent="TcSMqWzgI2ib8zmz97Rw-13">
          <mxGeometry x="-0.4152" y="-3" relative="1" as="geometry">
            <mxPoint as="offset" />
          </mxGeometry>
        </mxCell>
        <mxCell id="TcSMqWzgI2ib8zmz97Rw-15" value="user guess" style="shape=parallelogram;perimeter=parallelogramPerimeter;whiteSpace=wrap;html=1;fixedSize=1;" vertex="1" parent="WIyWlLk6GJQsqaUBKTNV-1">
          <mxGeometry x="230" y="-360" width="120" height="60" as="geometry" />
        </mxCell>
        <mxCell id="TcSMqWzgI2ib8zmz97Rw-16" style="edgeStyle=orthogonalEdgeStyle;rounded=0;orthogonalLoop=1;jettySize=auto;html=1;exitX=0.5;exitY=1;exitDx=0;exitDy=0;entryX=0;entryY=0.5;entryDx=0;entryDy=0;" edge="1" parent="WIyWlLk6GJQsqaUBKTNV-1" source="TcSMqWzgI2ib8zmz97Rw-9" target="TcSMqWzgI2ib8zmz97Rw-15">
          <mxGeometry relative="1" as="geometry">
            <Array as="points">
              <mxPoint x="170" y="-330" />
            </Array>
          </mxGeometry>
        </mxCell>
        <mxCell id="TcSMqWzgI2ib8zmz97Rw-20" style="edgeStyle=orthogonalEdgeStyle;rounded=0;orthogonalLoop=1;jettySize=auto;html=1;exitX=0.5;exitY=1;exitDx=0;exitDy=0;entryX=0.5;entryY=0;entryDx=0;entryDy=0;" edge="1" parent="WIyWlLk6GJQsqaUBKTNV-1" source="TcSMqWzgI2ib8zmz97Rw-18" target="TcSMqWzgI2ib8zmz97Rw-7">
          <mxGeometry relative="1" as="geometry" />
        </mxCell>
        <mxCell id="TcSMqWzgI2ib8zmz97Rw-18" value="generate number between 1 and 100" style="rounded=0;whiteSpace=wrap;html=1;" vertex="1" parent="WIyWlLk6GJQsqaUBKTNV-1">
          <mxGeometry x="260" y="-660" width="120" height="60" as="geometry" />
        </mxCell>
        <mxCell id="TcSMqWzgI2ib8zmz97Rw-23" style="edgeStyle=orthogonalEdgeStyle;rounded=0;orthogonalLoop=1;jettySize=auto;html=1;exitX=1;exitY=0.5;exitDx=0;exitDy=0;" edge="1" parent="WIyWlLk6GJQsqaUBKTNV-1" source="TcSMqWzgI2ib8zmz97Rw-21">
          <mxGeometry relative="1" as="geometry">
            <mxPoint x="440" y="-110" as="targetPoint" />
          </mxGeometry>
        </mxCell>
        <mxCell id="TcSMqWzgI2ib8zmz97Rw-24" value="yes" style="edgeLabel;html=1;align=center;verticalAlign=middle;resizable=0;points=[];" vertex="1" connectable="0" parent="TcSMqWzgI2ib8zmz97Rw-23">
          <mxGeometry x="-0.3636" y="3" relative="1" as="geometry">
            <mxPoint as="offset" />
          </mxGeometry>
        </mxCell>
        <mxCell id="TcSMqWzgI2ib8zmz97Rw-25" style="edgeStyle=orthogonalEdgeStyle;rounded=0;orthogonalLoop=1;jettySize=auto;html=1;exitX=0;exitY=0.5;exitDx=0;exitDy=0;" edge="1" parent="WIyWlLk6GJQsqaUBKTNV-1" source="TcSMqWzgI2ib8zmz97Rw-21">
          <mxGeometry relative="1" as="geometry">
            <mxPoint x="140" y="-90" as="targetPoint" />
          </mxGeometry>
        </mxCell>
        <mxCell id="TcSMqWzgI2ib8zmz97Rw-26" value="No" style="edgeLabel;html=1;align=center;verticalAlign=middle;resizable=0;points=[];" vertex="1" connectable="0" parent="TcSMqWzgI2ib8zmz97Rw-25">
          <mxGeometry x="-0.3568" y="4" relative="1" as="geometry">
            <mxPoint as="offset" />
          </mxGeometry>
        </mxCell>
        <mxCell id="TcSMqWzgI2ib8zmz97Rw-21" value="Does it match?" style="rhombus;whiteSpace=wrap;html=1;" vertex="1" parent="WIyWlLk6GJQsqaUBKTNV-1">
          <mxGeometry x="230" y="-230" width="120" height="90" as="geometry" />
        </mxCell>
        <mxCell id="TcSMqWzgI2ib8zmz97Rw-22" style="edgeStyle=orthogonalEdgeStyle;rounded=0;orthogonalLoop=1;jettySize=auto;html=1;exitX=0.5;exitY=1;exitDx=0;exitDy=0;entryX=0.467;entryY=0.096;entryDx=0;entryDy=0;entryPerimeter=0;" edge="1" parent="WIyWlLk6GJQsqaUBKTNV-1" source="TcSMqWzgI2ib8zmz97Rw-15" target="TcSMqWzgI2ib8zmz97Rw-21">
          <mxGeometry relative="1" as="geometry" />
        </mxCell>
        <mxCell id="TcSMqWzgI2ib8zmz97Rw-29" style="edgeStyle=orthogonalEdgeStyle;rounded=0;orthogonalLoop=1;jettySize=auto;html=1;exitX=0.5;exitY=1;exitDx=0;exitDy=0;" edge="1" parent="WIyWlLk6GJQsqaUBKTNV-1" source="TcSMqWzgI2ib8zmz97Rw-27" target="TcSMqWzgI2ib8zmz97Rw-28">
          <mxGeometry relative="1" as="geometry" />
        </mxCell>
        <mxCell id="TcSMqWzgI2ib8zmz97Rw-27" value="Remove one guess" style="rounded=0;whiteSpace=wrap;html=1;" vertex="1" parent="WIyWlLk6GJQsqaUBKTNV-1">
          <mxGeometry x="80" y="-90" width="120" height="60" as="geometry" />
        </mxCell>
        <mxCell id="TcSMqWzgI2ib8zmz97Rw-33" style="edgeStyle=orthogonalEdgeStyle;rounded=0;orthogonalLoop=1;jettySize=auto;html=1;exitX=0;exitY=0.5;exitDx=0;exitDy=0;entryX=0;entryY=0.5;entryDx=0;entryDy=0;" edge="1" parent="WIyWlLk6GJQsqaUBKTNV-1" source="TcSMqWzgI2ib8zmz97Rw-28" target="TcSMqWzgI2ib8zmz97Rw-15">
          <mxGeometry relative="1" as="geometry">
            <Array as="points">
              <mxPoint x="40" y="60" />
              <mxPoint x="40" y="-330" />
            </Array>
          </mxGeometry>
        </mxCell>
        <mxCell id="TcSMqWzgI2ib8zmz97Rw-28" value="print incorrect message" style="shape=parallelogram;perimeter=parallelogramPerimeter;whiteSpace=wrap;html=1;fixedSize=1;" vertex="1" parent="WIyWlLk6GJQsqaUBKTNV-1">
          <mxGeometry x="80" y="30" width="120" height="60" as="geometry" />
        </mxCell>
        <mxCell id="TcSMqWzgI2ib8zmz97Rw-30" value="print you are correct" style="rounded=0;whiteSpace=wrap;html=1;" vertex="1" parent="WIyWlLk6GJQsqaUBKTNV-1">
          <mxGeometry x="380" y="-110" width="120" height="60" as="geometry" />
        </mxCell>
        <mxCell id="TcSMqWzgI2ib8zmz97Rw-31" value="End" style="strokeWidth=2;html=1;shape=mxgraph.flowchart.terminator;whiteSpace=wrap;" vertex="1" parent="WIyWlLk6GJQsqaUBKTNV-1">
          <mxGeometry x="390" y="10" width="100" height="60" as="geometry" />
        </mxCell>
        <mxCell id="TcSMqWzgI2ib8zmz97Rw-32" style="edgeStyle=orthogonalEdgeStyle;rounded=0;orthogonalLoop=1;jettySize=auto;html=1;exitX=0.5;exitY=1;exitDx=0;exitDy=0;entryX=0.5;entryY=0;entryDx=0;entryDy=0;entryPerimeter=0;" edge="1" parent="WIyWlLk6GJQsqaUBKTNV-1" source="TcSMqWzgI2ib8zmz97Rw-30" target="TcSMqWzgI2ib8zmz97Rw-31">
          <mxGeometry relative="1" as="geometry" />
        </mxCell>
      </root>
    </mxGraphModel>
  </diagram>
</mxfile>
